# xmcd CD database file
#
# Track frame offsets:
#	150
#	12101
#	31021
#	46937
#	62811
#	78235
#	93492
#	114320
#
# Disc length: 1719 seconds
#
# Revision: 0
# Processed by: cddbd v1.5.1PL0 Copyright (c) Steve Scherf et al.
# Submitted via: CDex 1.51
#
DISCID=5206b508
DTITLE=SHS Jazz Band - SHS Jazz Ensemble 2002
DYEAR=2002
DGENRE=Jazz
TTITLE0=That Thing You Do
TTITLE1=Good Time Blues
TTITLE2=Sorry, No Gas
TTITLE3=That Impression That I Get
TTITLE4=Pick Up the Pieces
TTITLE5=I Feel Good
TTITLE6=Manteca
TTITLE7=Love Takes Time
EXTD=YEAR: 2002
EXTT0=
EXTT1=
EXTT2=
EXTT3=
EXTT4=
EXTT5=
EXTT6=
EXTT7=
PLAYORDER=
